<svg width="32" height="32" viewBox="0 0 32 32" fill="none" xmlns="http://www.w3.org/2000/svg">
<path d="M12 17.3333H20C20.3778 17.3333 20.6947 17.2053 20.9507 16.9493C21.2067 16.6933 21.3342 16.3769 21.3333 16C21.3324 15.6231 21.2044 15.3067 20.9493 15.0507C20.6942 14.7947 20.3778 14.6667 20 14.6667H12C11.6222 14.6667 11.3058 14.7947 11.0507 15.0507C10.7956 15.3067 10.6676 15.6231 10.6667 16C10.6658 16.3769 10.7938 16.6938 11.0507 16.9507C11.3076 17.2076 11.624 17.3351 12 17.3333ZM12 21.3333H20C20.3778 21.3333 20.6947 21.2053 20.9507 20.9493C21.2067 20.6933 21.3342 20.3769 21.3333 20C21.3324 19.6231 21.2044 19.3067 20.9493 19.0507C20.6942 18.7947 20.3778 18.6667 20 18.6667H12C11.6222 18.6667 11.3058 18.7947 11.0507 19.0507C10.7956 19.3067 10.6676 19.6231 10.6667 20C10.6658 20.3769 10.7938 20.6938 11.0507 20.9507C11.3076 21.2076 11.624 21.3351 12 21.3333ZM12 25.3333H16C16.3778 25.3333 16.6947 25.2053 16.9507 24.9493C17.2067 24.6933 17.3342 24.3769 17.3333 24C17.3324 23.6231 17.2044 23.3067 16.9493 23.0507C16.6942 22.7947 16.3778 22.6667 16 22.6667H12C11.6222 22.6667 11.3058 22.7947 11.0507 23.0507C10.7956 23.3067 10.6676 23.6231 10.6667 24C10.6658 24.3769 10.7938 24.6938 11.0507 24.9507C11.3076 25.2076 11.624 25.3351 12 25.3333ZM8 29.3333C7.26667 29.3333 6.63911 29.0724 6.11733 28.5507C5.59555 28.0289 5.33422 27.4009 5.33333 26.6667V5.33333C5.33333 4.6 5.59467 3.97244 6.11733 3.45067C6.64 2.92889 7.26756 2.66756 8 2.66667H17.5667C17.9222 2.66667 18.2613 2.73333 18.584 2.86667C18.9067 3 19.1898 3.18889 19.4333 3.43333L25.9 9.9C26.1444 10.1444 26.3333 10.428 26.4667 10.7507C26.6 11.0733 26.6667 11.412 26.6667 11.7667V26.6667C26.6667 27.4 26.4058 28.028 25.884 28.5507C25.3622 29.0733 24.7342 29.3342 24 29.3333H8ZM24 12H19.3333C18.7778 12 18.3058 11.8058 17.9173 11.4173C17.5289 11.0289 17.3342 10.5564 17.3333 10V5.33333H8V26.6667H24V12Z" fill="black"/>
</svg>
