<svg width="32" height="32" viewBox="0 0 32 32" fill="none" xmlns="http://www.w3.org/2000/svg">
<path fill-rule="evenodd" clip-rule="evenodd" d="M28.8 16C28.8 19.3948 27.4514 22.6505 25.051 25.051C22.6505 27.4514 19.3948 28.8 16 28.8C12.6052 28.8 9.3495 27.4514 6.94903 25.051C4.54857 22.6505 3.2 19.3948 3.2 16C3.2 12.6052 4.54857 9.3495 6.94903 6.94903C9.3495 4.54856 12.6052 3.2 16 3.2C19.3948 3.2 22.6505 4.54856 25.051 6.94903C27.4514 9.3495 28.8 12.6052 28.8 16ZM17.6 22.4C17.6 22.8243 17.4314 23.2313 17.1314 23.5314C16.8313 23.8314 16.4243 24 16 24C15.5757 24 15.1687 23.8314 14.8686 23.5314C14.5686 23.2313 14.4 22.8243 14.4 22.4C14.4 21.9757 14.5686 21.5687 14.8686 21.2686C15.1687 20.9686 15.5757 20.8 16 20.8C16.4243 20.8 16.8313 20.9686 17.1314 21.2686C17.4314 21.5687 17.6 21.9757 17.6 22.4ZM16 8C15.5757 8 15.1687 8.16857 14.8686 8.46863C14.5686 8.76868 14.4 9.17565 14.4 9.6V16C14.4 16.4243 14.5686 16.8313 14.8686 17.1314C15.1687 17.4314 15.5757 17.6 16 17.6C16.4243 17.6 16.8313 17.4314 17.1314 17.1314C17.4314 16.8313 17.6 16.4243 17.6 16V9.6C17.6 9.17565 17.4314 8.76868 17.1314 8.46863C16.8313 8.16857 16.4243 8 16 8Z" fill="black"/>
</svg>
