<svg width="32" height="32" viewBox="0 0 32 32" fill="none" xmlns="http://www.w3.org/2000/svg">
<path d="M30.6667 16L27.4133 12.28L27.8667 7.36L23.0533 6.26667L20.5333 2L16 3.94667L11.4667 2L8.94667 6.25333L4.13333 7.33333L4.58667 12.2667L1.33333 16L4.58667 19.72L4.13333 24.6533L8.94667 25.7467L11.4667 30L16 28.04L20.5333 29.9867L23.0533 25.7333L27.8667 24.64L27.4133 19.72L30.6667 16ZM12.5067 21.3467L9.33333 18.1467C9.20973 18.0233 9.11166 17.8768 9.04476 17.7155C8.97785 17.5542 8.94341 17.3813 8.94341 17.2067C8.94341 17.032 8.97785 16.8591 9.04476 16.6978C9.11166 16.5365 9.20973 16.39 9.33333 16.2667L9.42667 16.1733C9.94667 15.6533 10.8 15.6533 11.32 16.1733L13.4667 18.3333L20.3333 11.4533C20.8533 10.9333 21.7067 10.9333 22.2267 11.4533L22.32 11.5467C22.84 12.0667 22.84 12.9067 22.32 13.4267L14.4267 21.3467C13.88 21.8667 13.04 21.8667 12.5067 21.3467Z" fill="black"/>
</svg>
